<?xml version="1.0" standalone="no"?>
<!DOCTYPE svg PUBLIC "-//W3C//DTD SVG 20010904//EN"
 "http://www.w3.org/TR/2001/REC-SVG-20010904/DTD/svg10.dtd">
<svg version="1.0" xmlns="http://www.w3.org/2000/svg"
 width="313.000000pt" height="313.000000pt" viewBox="0 0 313.000000 313.000000"
 preserveAspectRatio="xMidYMid meet">
<metadata>
Created by potrace 1.11, written by Peter Selinger 2001-2013
</metadata>
<g transform="translate(0.000000,313.000000) scale(0.100000,-0.100000)"
fill="#000000" stroke="none">
<path d="M1450 3124 c-14 -2 -63 -9 -110 -15 -197 -26 -455 -125 -627 -239
-333 -222 -558 -549 -660 -957 -25 -101 -27 -123 -28 -333 0 -246 8 -303 67
-490 238 -750 1012 -1202 1788 -1045 252 51 463 150 667 314 170 135 299 293
396 479 89 171 131 292 164 472 23 131 23 390 -1 524 -126 696 -669 1205
-1371 1286 -85 9 -231 11 -285 4z m-860 -1119 l0 -305 344 0 345 0 0 293 c1
160 1 298 1 305 0 9 25 12 90 12 l90 0 0 -715 0 -715 -90 0 -90 0 -1 298 c-1
163 0 307 1 320 l1 22 -345 0 -346 0 0 -320 0 -320 -95 0 -95 0 0 715 0 715
95 0 95 0 0 -305z m1884 272 c158 -73 246 -214 246 -392 0 -169 -79 -304 -220
-375 -25 -12 -46 -24 -48 -25 -2 -2 42 -70 98 -152 56 -81 148 -215 204 -298
l102 -150 -100 -3 c-55 -1 -105 -1 -111 2 -6 2 -98 133 -205 290 l-194 286
-198 0 -198 0 0 -290 0 -290 -95 0 -95 0 0 716 0 715 378 -3 377 -3 59 -28z"/>
<path d="M1850 1880 l0 -260 233 0 c255 0 300 7 364 56 110 83 113 310 6 404
-64 57 -82 60 -354 60 l-249 0 0 -260z"/>
</g>
</svg>
